<svg width="49" height="49" viewBox="0 0 49 49" fill="none" xmlns="http://www.w3.org/2000/svg">
<g clip-path="url(#clip0_366_9142)">
<path d="M24.3056 0C10.9027 0 0 10.9037 0 24.3056C0 37.7074 10.9027 48.6111 24.3056 48.6111C37.7085 48.6111 48.6111 37.7074 48.6111 24.3056C48.6111 10.9037 37.7085 0 24.3056 0ZM33.9681 25.1571L19.7899 34.2717C19.6237 34.3794 19.4318 34.4329 19.2419 34.4329C19.0758 34.4329 18.9076 34.3913 18.7573 34.3093C18.4309 34.1313 18.2292 33.791 18.2292 33.4201V15.191C18.2292 14.8201 18.4309 14.4798 18.7573 14.3018C19.0778 14.1258 19.4793 14.1366 19.7899 14.3394L33.9681 23.454C34.2569 23.6399 34.4329 23.9614 34.4329 24.3056C34.4329 24.6497 34.2569 24.9711 33.9681 25.1571Z" fill="white"/>
</g>
<defs>
<clipPath id="clip0_366_9142">
<rect width="48.6111" height="48.6111" fill="white"/>
</clipPath>
</defs>
</svg>
