<svg width="18" height="16" viewBox="0 0 18 16" fill="none" xmlns="http://www.w3.org/2000/svg">
<path d="M0.749968 8.45644L15.7119 8.45644L9.98273 13.9134C9.68273 14.1991 9.67111 14.6739 9.95685 14.9739C10.2422 15.2735 10.717 15.2855 11.0173 14.9997L17.5603 8.76731C17.8434 8.48382 17.9998 8.10732 17.9998 7.70645C17.9998 7.30596 17.8434 6.92909 17.5471 6.63321L11.017 0.413539C10.8718 0.275166 10.6858 0.206543 10.4998 0.206543C10.3019 0.206543 10.1039 0.284541 9.95648 0.439414C9.67073 0.739411 9.68236 1.21378 9.98236 1.49953L15.7355 6.95646L0.749968 6.95646C0.335974 6.95646 -2.21963e-05 7.29246 -2.22325e-05 7.70645C-2.22687e-05 8.12045 0.335974 8.45644 0.749968 8.45644Z" fill="#A01F23"/>
</svg>
