<svg width="18" height="15" viewBox="0 0 18 15" fill="none" xmlns="http://www.w3.org/2000/svg">
<path d="M0.749968 8.2499L15.7119 8.2499L9.98273 13.7068C9.68273 13.9926 9.67111 14.4673 9.95685 14.7673C10.2422 15.0669 10.717 15.0789 11.0173 14.7932L17.5603 8.56077C17.8434 8.27727 17.9998 7.90078 17.9998 7.49991C17.9998 7.09941 17.8434 6.72254 17.5471 6.42667L11.017 0.206996C10.8718 0.068623 10.6858 3.14267e-07 10.4998 2.98006e-07C10.3019 2.80697e-07 10.1039 0.0779982 9.95648 0.232871C9.67073 0.532868 9.68236 1.00724 9.98236 1.29298L15.7355 6.74992L0.749968 6.74992C0.335973 6.74992 -2.21963e-05 7.08591 -2.22325e-05 7.49991C-2.22687e-05 7.9139 0.335973 8.2499 0.749968 8.2499Z" fill="white"/>
</svg>
