<svg width="40" height="40" viewBox="0 0 40 40" fill="none" xmlns="http://www.w3.org/2000/svg">
<circle cx="20" cy="20" r="20" fill="#A01F23"/>
<path d="M20.0294 30C20.7001 30 21.2446 29.4878 21.2446 28.855C21.2446 28.2231 21.2446 27.7109 21.2446 27.7109C24.5624 27.407 26.7586 25.6546 26.7586 22.8038V22.7572C26.7586 19.8598 24.8894 18.5282 21.1745 17.664V14.9537C21.7093 15.0844 22.2632 15.2696 22.8044 15.5098C23.6755 15.896 24.7341 15.6539 25.263 14.7893C25.7923 13.9252 25.5064 12.7113 24.5258 12.2711C23.5494 11.8332 22.4778 11.5316 21.2908 11.4019V10.7007C21.2908 10.3141 20.7472 10 20.0761 10C19.4049 10 18.8609 10.2984 18.8609 10.6651C18.8609 11.0332 18.8609 11.3311 18.8609 11.3311C15.2854 11.5884 13.2762 13.5043 13.2762 16.2613V16.3084C13.2762 19.2054 15.1921 20.4912 18.9541 21.3549V24.1591C18.0516 24.0136 17.168 23.7138 16.2687 23.2547C15.3107 22.766 14.1371 22.9388 13.5565 23.7969C12.9755 24.6546 13.2101 25.8731 14.1759 26.3469C15.5949 27.0439 17.1985 27.4993 18.8137 27.6647V28.8328C18.8142 29.4771 19.3583 30 20.0294 30ZM21.1505 21.7291C22.3662 22.0792 22.7162 22.4303 22.7162 23.0607V23.1078C22.7162 23.7854 22.2257 24.1822 21.1505 24.2995V21.7291ZM17.3884 15.9574V15.9107C17.3884 15.3034 17.8327 14.8359 18.9772 14.7427V17.2664C17.7159 16.9158 17.3884 16.5647 17.3884 15.9574Z" fill="white"/>
</svg>
