<svg width="19" height="16" viewBox="0 0 19 16" fill="none" xmlns="http://www.w3.org/2000/svg">
<path d="M17.4362 7.14783L2.4783 6.80128L8.33233 1.47851C8.63887 1.19979 8.66149 0.725442 8.38277 0.418908C8.10441 0.112757 7.63007 0.0897646 7.32316 0.368477L0.637643 6.44768C0.348031 6.72454 0.182979 7.09732 0.173694 7.49808C0.164418 7.89847 0.31202 8.27886 0.601334 8.58151L6.98569 14.9508C7.12757 15.0925 7.31193 15.1654 7.49788 15.1697C7.69582 15.1743 7.89557 15.1009 8.04649 14.9495C8.33911 14.6562 8.33848 14.1817 8.04518 13.889L2.41994 8.30031L17.4015 8.64741C17.8154 8.657 18.1591 8.32888 18.1686 7.91499C18.1782 7.50111 17.8501 7.15742 17.4362 7.14783V7.14783Z" fill="#A01F23"/>
</svg>
