<svg width="15" height="15" viewBox="0 0 15 15" fill="none" xmlns="http://www.w3.org/2000/svg">
<path d="M13.5484 0.72583H1.45161C0.653226 0.72583 0 1.37906 0 2.17744C0 2.97583 0.653226 3.62906 1.45161 3.62906H13.5484C14.3468 3.62906 15 2.97583 15 2.17744C15 1.37906 14.3468 0.72583 13.5484 0.72583Z" fill="#A01F23"/>
<path d="M13.5484 6.04834H1.45161C0.653226 6.04834 0 6.70157 0 7.49995C0 8.29834 0.653226 8.95157 1.45161 8.95157H13.5484C14.3468 8.95157 15 8.29834 15 7.49995C15 6.70157 14.3468 6.04834 13.5484 6.04834Z" fill="#A01F23"/>
<path d="M13.5484 11.3711H1.45161C0.653226 11.3711 0 12.0243 0 12.8227C0 13.6211 0.653226 14.2743 1.45161 14.2743H13.5484C14.3468 14.2743 15 13.6211 15 12.8227C15 12.0243 14.3468 11.3711 13.5484 11.3711Z" fill="#A01F23"/>
</svg>
