<svg width="19" height="16" viewBox="0 0 19 16" fill="none" xmlns="http://www.w3.org/2000/svg">
<path d="M17.4362 7.94129L2.4783 7.59474L8.33233 2.27197C8.63887 1.99325 8.66149 1.5189 8.38277 1.21237C8.10441 0.906214 7.63007 0.883222 7.32316 1.16193L0.637643 7.24114C0.348031 7.518 0.182979 7.89077 0.173694 8.29154C0.164418 8.69192 0.31202 9.07231 0.601334 9.37497L6.98569 15.7442C7.12757 15.8859 7.31193 15.9588 7.49788 15.9631C7.69582 15.9677 7.89557 15.8943 8.04649 15.7429C8.33911 15.4496 8.33848 14.9751 8.04518 14.6825L2.41994 9.09377L17.4015 9.44087C17.8154 9.45046 18.1591 9.12233 18.1686 8.70845C18.1782 8.29457 17.8501 7.95088 17.4362 7.94129Z" fill="white"/>
</svg>
